<?xml version="1.0" encoding="utf-8"?>
<!-- Generator: Adobe Illustrator 26.0.2, SVG Export Plug-In . SVG Version: 6.00 Build 0)  -->
<svg version="1.1" xmlns="http://www.w3.org/2000/svg" xmlns:xlink="http://www.w3.org/1999/xlink" x="0px" y="0px"
	 viewBox="0 0 384 384" style="enable-background:new 0 0 384 384;" xml:space="preserve">
<style type="text/css">
	.st0{fill:#FBF7F0;}
	.st1{display:none;fill:#FFFFFF;}
	.st2{display:none;fill:#FFFDF9;}
	.st3{clip-path:url(#SVGID_00000138538691655715916020000009044676659935024304_);}
	.st4{fill:#E9E4CC;}
	.st5{fill:#FFFEF8;}
	.st6{fill:#FFF9E1;}
	.st7{fill:#FFF4C7;}
</style>
<g id="Layer_2">
	<path class="st0" d="M298.3,384H85.7C38.4,384,0,345.6,0,298.3V85.7C0,38.4,38.4,0,85.7,0h212.7C345.6,0,384,38.4,384,85.7v212.7
		C384,345.6,345.6,384,298.3,384z"/>
</g>
<g id="Layer_1">
	<path class="st1" d="M-38.4-38.4h460.8v460.8H-38.4V-38.4z"/>
	<path class="st1" d="M-38.4-38.4h460.8v460.8H-38.4V-38.4z"/>
	<path class="st2" d="M-38.4-38.4h460.8v460.8H-38.4V-38.4z"/>
	<g>
		<defs>
			<rect id="SVGID_1_" x="16.5" y="53.7" width="350.9" height="276.6"/>
		</defs>
		<clipPath id="SVGID_00000109751076736424516100000010309274956107709625_">
			<use xlink:href="#SVGID_1_"  style="overflow:visible;"/>
		</clipPath>
		<g style="clip-path:url(#SVGID_00000109751076736424516100000010309274956107709625_);">
			<path d="M352.8,109.6c-5.7-6-9.5-12.9-14.4-19.4c-7.6-9.9-18.8-13.8-30.3-17.2c-17.8-5.3-35.7-10.3-53.6-15.5
				c-29.8-8.6-63.5,2.7-93.2,9.1c-14.1,3.1-29,5.4-42.2,11.4c-13.5,6.1-24.4,17-34.3,27.8c-8.6,9.3-15.3,20.3-13.2,33.4
				c0.3,1.8,0.7,3.6,1.3,5.3c-0.6,13.5-0.6,27,0,40.4c-9.6-0.1-19.1-0.5-28.5-1.3c-15.4-1.3-20,1.9-21.6,17.2
				c-2.1,20.4-5.9,41.7-5.9,62.2c0,16.3,9.6,29.7,20.4,41.3c8.7,9.3,23.2,23.1,36.3,25c5.6,0.8,9-1.9,13-5.3
				c7.7-6.6,15-13.9,22.7-20.5c15-12.7,30.7-24.5,46.7-35.7c-0.1,8-0.3,16-0.2,23.8c0,0.1,0,0.2,0,0.4c-0.3,1.5,0.3,3.2,2.2,3.7
				c51.6,12.2,106.8,7.1,153.9-18.1c18.6-10,37.1-23.5,46-43.4c5.2-11.5,6.5-24.1,7.2-36.6c0.8-14.4,2.7-28.9,2.2-43.4
				c0.4-10.4,0.1-21.1-4.2-30.6C360.5,118.1,356.7,113.9,352.8,109.6"/>
			<path d="M71.8,320.7c-1.2-26.8,1.7-53.3,8.6-79.1c-20.2-9.1-30.4-32.9-51.5-39.5c0,1-0.1,2-0.2,2.9c-1.6,16.3-3.2,32.6-4.8,49
				c-1.9,18.7,5.2,32.4,17.8,45.8c5.1,5.4,10.7,10.4,16.8,14.6C63.1,317.6,67.4,320.1,71.8,320.7z M80.1,237.2
				c-4.1-9.4-11.2-16.8-18.3-24.1C52.9,204,43,196,29.7,196.3c-0.2,0.6-0.3,1.3-0.4,1.9C50.7,204.4,60.6,227.6,80.1,237.2z
				 M79.2,185.1c2.9,0,5.7,0,8.6-0.1c0-0.1-0.1-0.3-0.1-0.5c-0.2-4.4-0.4-8.7-0.6-13.1c-0.1-2.7-0.1-5.2,0.8-7.6
				c-3.5-2.1-6.6-4.8-9.1-7.9C78.7,165.6,78.8,175.4,79.2,185.1z M155.8,249.8c-0.1-6.4-0.5-12.8-1.3-19c-0.4-3.4-2.3-6.8-3.6-10.2
				c-8.4,2.4-16.7,5.1-24.9,8c-10.1,3.6-24,6.7-31.2,14.8c-7.3,8.2-8,23.4-9.2,34c-1.1,9.6-1.3,19.3-0.9,28.9
				C107.7,286.5,131.4,267.7,155.8,249.8z M155.9,259.9c0-1.8,0-3.6,0-5.4c-24.6,18.1-48.5,37.2-71.5,57.2c-1.3,1.1-3.2,0.3-3.3-1.4
				c-0.7-13.3-0.3-26.5,1.7-39.6c1.3-9,2.1-22.6,8-30.1c5.5-6.9,19-10.1,26.9-13c10.6-4,21.4-7.5,32.2-10.7
				c-0.2-0.8-0.2-1.5-0.3-2.3c-20.4,6-40.5,13.1-60.1,21.4c-0.3,0.1-0.6,0.2-0.9,0.2c-8.1,27.4-11.6,55.5-10.4,84
				c2-0.6,4.2-1.7,6.4-3.3c12.6-9.1,23.6-21.2,35.9-30.9C132.1,276.9,143.9,268.3,155.9,259.9z M175.1,187.4
				c-8.4,0.3-16.8,0.7-25.1,1c0.1,0.1,0.2,0.2,0.3,0.3c2.2,1.9,4,3.8,3.5,4.7c-0.4,0.9-3.3,0.3-5.9-1.9c-1-0.9-1.8-1.9-2.3-2.8
				c-24.2,1-48.5,2.1-72.7,2.4c-8.2,0.1-16.4,0-24.5-0.5c-3.1-0.2-8-1.8-11.1-1c-0.7,0.2-1.3,0.4-1.8,0.6c9.7,1.3,18,6.3,25.5,13
				c8.7,7.8,17.7,17,23.2,27.5c0.8-0.7,1.9-0.9,2.9-0.6c18.5-7.8,37.3-14.7,56.5-20.5c-3.9-2.5-6.9-4.9-6.4-5.7
				c0.4-0.9,4.6,0.3,9.1,3.2c0.6,0.4,1.2,0.8,1.8,1.2c1.1-0.3,2.2-0.6,3.3-0.9c-0.4-0.4-0.8-0.7-1.3-1.1c-2.6-2.5-4.7-4.8-4.1-5.6
				c0.5-0.8,3.7,0.2,6.6,3c0.6,0.5,1,1,1.4,1.5c2.3-2.2,5.2-3.8,7.9-5.2c0.4-0.2,0.7-0.3,1-0.3C167,195.5,171,191.5,175.1,187.4z
				 M212.2,146.5c-19.6,7-39.3,13.6-59.6,18c-10.5,2.2-21.2,3.8-31.9,4.5c-5,0.3-12.3-1.1-16.2,2.1c-3.4,3-2.8,8.7-2.7,13.5
				c25.8-0.9,51.7-2.9,77.1-3.9c0.8,0,1.5,0.2,1.9,0.6C191.6,170,201.9,158.2,212.2,146.5z M217.5,140.5c0.3-0.3,0.6-0.7,0.9-1.1
				c-40.5,9.7-81.4,17.5-122.6,23.3c-0.1,0.8-0.6,1.6-1.3,2.2c0,0,0,0,0,0c-1.7,2.7-0.9,6.5-0.8,9.5c0.1,3.4,0.3,6.7,0.5,10
				c0,0.1,0,0.3,0,0.4c1.3,0,2.5-0.1,3.8-0.1c-0.2-6.6-1.6-15.8,4.9-18.9c3.3-1.5,8.3-0.4,11.8-0.5c7.7-0.2,15.5-1,23.1-2.1
				C165.3,159.1,191.6,149.8,217.5,140.5z M327.5,166.7c15.5-14.1,17.9-34.3,7.4-52.1c-9.8-16.6-28.2-26.2-45.7-32.6
				c-17.3-6.3-35.6-11.6-54-13.2c-18.5-1.6-38.7,1-55.9,8.4c-12.9,5.6-26.3,8.1-39.8,12.2C125,93.8,110,99.8,99.4,111.2
				c-11.6,12.5-16.2,30.7-7.2,45.7c0.2-0.1,0.4-0.1,0.6-0.1c44.7-6.2,89.1-14.8,133-25.6c2.4-0.6,3.9,1.3,4,3.2
				c0.3,1,0.1,2.1-0.7,3.1c-19.9,22-39,45.2-60.6,65.6c17-1.4,33.9,0.3,51-0.4c20.8-0.9,40.8-6.9,60.5-13.4
				C296.4,183.7,314.4,178.7,327.5,166.7z M360.3,160.7c0.2-4,0.4-7.9,0.3-11.7c-0.4,1.4-0.9,2.7-1.4,3.8c-1.3,2.8-2.5,4.3-2.9,4.1
				c-0.9-0.5,1.5-7.3,2.1-16c0.2-3.1,0.2-5.9,0.1-8.4c-1.8-6.4-5-12.5-10.3-18.3c-10.7-11.7-16.5-26-32.3-31.8
				c-15.1-5.6-31.2-9.2-46.7-13.7c-9.1-2.6-18.4-6.2-27.7-7.7c-8.7-1.4-17.7,0.7-26.3,2c-16.9,2.6-33.6,6.1-50.2,9.6
				c-15.2,3.3-31.9,5.5-45.9,12.7c-13.5,6.9-28.9,21.2-36.9,34.1c-4.3,7.1-5.3,15-3.5,22.1c0.3,0.4,0.5,1,0.5,1.7
				c1.4,4.3,3.9,8.3,7.4,11.5c-5.7-12.9-3.5-28.1,4.8-39.9c9.5-13.6,24.4-21.5,39.8-26.8c8.8-3,17.9-5.4,26.9-7.5
				c9.3-2.1,17.2-6.4,26.1-9.3c19.7-6.5,41.1-8.1,61.5-4.9c33.6,5.3,80.7,18.3,95.7,52.7c15.6,35.7-16.6,58.7-46.3,69.1
				c-20.6,7.2-41.7,14.4-63.4,17.3c-22.9,3-46-1-69,2.1c-0.4,0-0.8,0-1.1-0.2c-2.6,2.1-4,5.2-4.3,9.5c0.1,0.4,0.1,0.8,0,1.2
				c0.6,0.9,1.2,1.9,1.8,2.9c0.4,1.4,1,2.8,1.3,4.3c1.3,6.4,0.6,13.5,0.7,19.9c0.3,15,0.5,30,0.8,45c47.9,10.8,99.1,6.4,143.1-16.2
				c20.7-10.6,41.3-25.2,49-48.1c3.8-11.5,3.9-23.7,4.7-35.7c0.6-9.2,1.6-18.4,1.8-27.6C360.4,161.9,360.3,161.3,360.3,160.7z
				 M362.9,123.5c4.3,9.5,4.6,20.2,4.2,30.6c0.5,14.5-1.3,29-2.2,43.4c-0.7,12.5-2,25.1-7.2,36.6c-8.9,19.8-27.3,33.4-46,43.4
				c-47,25.3-102.3,30.3-153.9,18.1c-2-0.5-2.6-2.2-2.2-3.7c0-0.1,0-0.2,0-0.4c-0.1-7.8,0.1-15.8,0.2-23.8
				c-16,11.3-31.7,23-46.7,35.7c-7.8,6.6-15,13.8-22.7,20.5c-4,3.4-7.4,6.1-13,5.3c-13.1-1.8-27.6-15.7-36.3-25
				c-10.7-11.5-20.3-25-20.4-41.3c0-20.5,3.8-41.8,5.9-62.2c1.6-15.3,6.3-18.5,21.6-17.2c9.5,0.8,19,1.2,28.5,1.3
				c-0.6-13.5-0.5-27,0-40.4c-0.6-1.7-1-3.5-1.3-5.3c-2.1-13.2,4.6-24.1,13.2-33.4c9.9-10.8,20.8-21.6,34.3-27.8
				c13.2-6,28.1-8.3,42.2-11.4c29.6-6.4,63.3-17.7,93.2-9.1c17.9,5.2,35.8,10.2,53.6,15.5c11.5,3.4,22.8,7.2,30.3,17.2
				c4.9,6.5,8.8,13.3,14.4,19.4C356.8,113.9,360.5,118.1,362.9,123.5"/>
		</g>
	</g>
	<path class="st4" d="M190.8,287.2c10.7,1.4,19.4-0.3,19.3-1.3c-0.1-1-8.6-1-18.8-2.3c-10.2-1.3-18.4-3.4-18.8-2.5
		C172.1,282.1,180,285.9,190.8,287.2z M190.4,227.3c12.7,1.2,22.7-1.8,22.5-2.7c-0.2-1-10.1,0.2-22.1-0.9
		c-12.1-1.1-21.6-4.1-21.9-3.1C168.4,221.4,177.8,226.2,190.4,227.3z M224.7,287.4c4-0.8,6.6-3,6.1-3.9c-0.5-0.9-3.4-0.3-6.8,0.3
		c-3.4,0.7-6.4,1.2-6.5,2.2C217.4,287,220.7,288.1,224.7,287.4z M238.2,222.9c10.6-2.3,18.7-6,18.4-6.9c-0.3-1-8.8,1.1-19.2,3.3
		c-10.4,2.3-18.9,4-18.8,5C218.7,225.3,227.6,225.2,238.2,222.9z M312.1,200.1c4.8-3.4,7.3-6.1,7-6.4c-0.7-0.9-12.2,7.6-28.5,13.9
		c-16.2,6.4-30.5,8-30.4,9.1c0,0.5,3.7,0.7,9.5,0c5.8-0.7,13.8-2.4,22.2-5.7C300.3,207.6,307.4,203.5,312.1,200.1z M315.6,255.8
		c7.9-4,13.6-8.5,13.1-9.3c-0.5-0.9-7,2.1-14.7,6c-7.7,4-13.9,7.5-13.6,8.4C300.8,261.9,307.7,259.8,315.6,255.8z M331.9,189.4
		c4.4-2.7,7.1-6,6.5-6.8c-0.6-0.8-4.3,1.1-8.4,3.7c-4.2,2.6-7.4,5.1-7,6C323.4,193.3,327.5,192.2,331.9,189.4z M341.8,237.5
		c3.3-4,4-8.2,3.1-8.5c-1-0.4-3,2.8-5.9,6.2c-2.8,3.5-5.5,6.1-4.9,7C334.5,243,338.5,241.5,341.8,237.5z M354.7,164.5
		c0.7-2.7,0.5-4.4,0.1-4.5c-1-0.2-3,5.8-7.8,11.7c-4.7,6-10.2,9.2-9.8,10.1c0.2,0.4,1.9,0.2,4.4-1.1c2.5-1.2,5.6-3.5,8.2-6.8
		C352.5,170.7,354.1,167.2,354.7,164.5z M360.6,149c0.1,3.8-0.1,7.6-0.3,11.7c0,0.7,0.1,1.2,0.4,1.7c-0.3,9.2-1.3,18.4-1.8,27.6
		c-0.8,12-0.9,24.2-4.7,35.7c-7.7,23-28.4,37.5-49,48.1c-44,22.6-95.2,27-143.1,16.2c-0.2-15-0.5-30-0.8-45
		c-0.1-6.5,0.5-13.6-0.7-19.9c-0.3-1.5-0.9-2.9-1.3-4.3c-0.6-1-1.2-1.9-1.8-2.9c0.1-0.4,0.1-0.8,0-1.2c0.3-4.2,1.7-7.4,4.3-9.5
		c0.3,0.1,0.7,0.2,1.1,0.2c22.9-3.1,46,0.9,69-2.1c21.7-2.8,42.8-10,63.4-17.3c29.7-10.4,61.9-33.4,46.3-69.1
		c-15-34.4-62.1-47.4-95.7-52.7c-20.4-3.2-41.9-1.6-61.5,4.9c-8.9,2.9-16.8,7.2-26.1,9.3c-9.1,2.1-18.1,4.5-26.9,7.5
		c-15.4,5.3-30.3,13.2-39.8,26.8c-8.2,11.8-10.5,27-4.8,39.9c-3.5-3.3-6-7.2-7.4-11.5c0-0.7-0.2-1.3-0.5-1.7
		c-1.8-7.1-0.9-15,3.5-22.1c7.9-13,23.4-27.2,36.9-34.1c14-7.2,30.7-9.4,45.9-12.7c16.7-3.6,33.4-7,50.2-9.6
		c8.6-1.3,17.6-3.4,26.3-2c9.3,1.6,18.7,5.1,27.7,7.7c15.5,4.5,31.6,8.1,46.7,13.7c15.7,5.8,21.6,20.1,32.3,31.8
		c5.4,5.9,8.5,11.9,10.3,18.3c0.1,2.5,0.1,5.3-0.1,8.4c-0.5,8.7-3,15.5-2.1,16c0.5,0.2,1.7-1.3,2.9-4.1
		C359.7,151.7,360.2,150.4,360.6,149"/>
	<path d="M354.8,160c0.5,0.1,0.6,1.8-0.1,4.5c-0.7,2.6-2.2,6.2-4.9,9.5c-2.6,3.3-5.8,5.6-8.2,6.8c-2.4,1.2-4.2,1.5-4.4,1.1
		c-0.5-1,5.1-4.2,9.8-10.1C351.8,165.9,353.8,159.8,354.8,160"/>
	<path d="M344.8,229c0.9,0.3,0.2,4.6-3.1,8.5c-3.2,4-7.3,5.6-7.7,4.7c-0.6-0.9,2.1-3.5,4.9-7C341.8,231.7,343.9,228.6,344.8,229"/>
	<path d="M338.4,182.7c0.6,0.8-2.1,4-6.5,6.8c-4.4,2.8-8.5,3.8-8.9,2.9c-0.4-0.9,2.8-3.4,7-6C334.1,183.8,337.7,181.9,338.4,182.7"
		/>
	<path class="st5" d="M123,141.3c0.4-0.9-2-2.8-5.2-4.2s-6.2-1.7-6.6-0.8c-0.4,0.9,2,2.8,5.2,4.2C119.6,141.8,122.6,142.2,123,141.3
		z M134,121.6c0.4-0.9-2.4-3.1-6.2-5c-3.9-1.9-7.4-2.6-7.8-1.7c-0.4,0.9,2.4,3.1,6.3,4.9C130.1,121.8,133.6,122.6,134,121.6z
		 M136.9,110.5c0.5-0.9-1.6-3-5.1-4c-3.4-1-6.4-0.3-6.4,0.7c0,1,2.4,1.9,5.4,2.8C133.8,110.9,136.4,111.4,136.9,110.5z M137.9,132.2
		c0.5-0.9-5.8-4.9-14.1-8.6c-8.3-3.7-15.4-5.7-15.8-4.8c-0.4,0.9,6.1,4.4,14.3,8.1C130.5,130.6,137.4,133.1,137.9,132.2z
		 M190.3,123.1c0.5-0.8-2.9-4-7.6-7.1c-4.7-3-9-4.9-9.6-4c-0.6,0.8,2.9,4,7.6,7.1C185.4,122.2,189.7,123.9,190.3,123.1z
		 M200.3,122.4c0.6-0.8-2.9-4.6-8.3-7.9c-5.3-3.3-10.3-4.8-10.7-3.9c-0.4,0.9,3.7,3.8,8.8,7C195.3,120.7,199.7,123.2,200.3,122.4z
		 M205,114.8c0.6-0.8-1.2-3.4-4.7-5c-3.4-1.6-6.6-1.4-6.8-0.4c-0.2,1,2.3,2.3,5.3,3.7C201.7,114.5,204.3,115.6,205,114.8z
		 M231.2,94.3c0.4-0.9-3.7-3.8-9.2-6.5c-5.5-2.7-10.4-4.1-10.8-3.2c-0.4,0.9,3.7,3.8,9.3,6.5C225.9,93.8,230.8,95.2,231.2,94.3z
		 M239.8,188c0.5-0.9-1.9-3.2-5.3-5.2c-3.5-2-6.7-2.9-7.2-2c-0.5,0.9,1.9,3.2,5.4,5.2C236.1,188,239.3,188.9,239.8,188z M240.9,128
		c0.4-0.9-1.5-2.6-4.1-3.7c-2.7-1.1-5.2-1.2-5.5-0.2c-0.4,0.9,1.5,2.6,4.2,3.6C238.1,128.8,240.5,128.9,240.9,128z M245.5,125.2
		c0.6-0.8-1.5-3.5-5.2-5.1c-3.7-1.7-7.2-1.4-7.3-0.4c-0.2,1,2.6,2.3,5.8,3.7C242.1,124.8,244.9,126,245.5,125.2z M247.2,98.1
		c0.6-0.8-5.4-6.5-13.9-12.1c-8.5-5.5-16.2-8.7-16.6-7.8c-0.5,0.9,6.3,5.4,14.6,10.9C239.7,94.5,246.6,98.9,247.2,98.1z M247.6,90.8
		c0.8-0.6-1.1-4.4-5.3-7.3c-4.2-2.9-8.4-3.4-8.7-2.4c-0.3,1,2.9,2.9,6.6,5.4C244,89,246.8,91.4,247.6,90.8z M250.8,133.5
		c0.7-0.7,0-2.6-2.2-3.4c-2.1-0.8-4,0.1-3.9,1.1c0.1,1,1.3,1.8,2.6,2.3C248.7,134,250.1,134.2,250.8,133.5z M255.9,188.8
		c0.5-0.8-5.2-5.4-13-9.8c-7.9-4.3-14.8-6.7-15.2-5.8c-0.4,0.9,5.7,4.7,13.4,9C248.8,186.5,255.3,189.6,255.9,188.8z M266.2,183.9
		c0.4-0.9-2.3-2.9-5.9-4.4c-3.7-1.5-6.9-2-7.3-1c-0.4,0.9,2.3,2.9,5.9,4.4C262.6,184.3,265.9,184.8,266.2,183.9z M293.2,118.1
		c0.5-0.9-1.7-3.2-5-5.1c-3.3-2-6.3-2.8-6.9-2c-0.5,0.9,1.7,3.1,5,5.1C289.6,118.1,292.6,119,293.2,118.1z M299.3,114.1
		c0.6-0.8-1.5-3.5-5.2-5.4c-3.6-2-7.1-2.3-7.4-1.4c-0.3,1,2.3,2.8,5.7,4.6C295.7,113.7,298.7,114.9,299.3,114.1z M311.5,111.2
		c0.6-0.8-2.5-4.1-7.3-6.5c-4.8-2.5-9.3-3-9.6-2c-0.3,1,3.4,3,7.9,5.3C307.1,110.2,310.9,112,311.5,111.2z M312.9,156.8
		c0.5-0.8-5.8-5.6-14.6-9.6c-8.8-4-16.6-5.5-16.9-4.6c-0.3,1,6.8,4,15.4,7.9C305.4,154.4,312.4,157.7,312.9,156.8z M321.1,142.5
		c0.6-0.8-1.5-3.4-5-5.2c-3.5-1.8-6.9-2-7.1-1c-0.3,1,2.3,2.6,5.5,4.3C317.7,142.1,320.5,143.3,321.1,142.5z M323.2,150.9
		c0.4-0.9-4.7-4.1-11.4-7c-6.7-3-12.4-4.6-12.8-3.7c-0.4,0.9,4.7,4.1,11.4,7C317,150.2,322.8,151.8,323.2,150.9z M334.9,114.6
		c10.5,17.8,8.1,38-7.4,52.1c-13.1,12-31.1,17-47.6,22.4c-19.7,6.5-39.7,12.5-60.5,13.4c-17,0.8-34-1-51,0.4
		c21.6-20.3,40.7-43.6,60.6-65.6c0.9-1,1-2.1,0.7-3.1c-0.1-1.9-1.6-3.8-4-3.2c-43.9,10.8-88.2,19.4-133,25.6c-0.2,0-0.4,0.1-0.6,0.1
		c-9.1-15-4.5-33.3,7.2-45.7C110,99.8,125,93.8,139.6,89.4c13.5-4,26.8-6.6,39.8-12.2c17.1-7.4,37.4-10,55.9-8.4
		c18.4,1.6,36.6,6.9,54,13.2C306.7,88.4,325.1,98,334.9,114.6"/>
	<path d="M328.7,246.5c0.5,0.8-5.2,5.3-13.1,9.3c-7.9,4-14.8,6.1-15.2,5.2c-0.4-0.9,5.8-4.4,13.6-8.4
		C321.7,248.6,328.1,245.6,328.7,246.5"/>
	<path d="M311.8,143.9c6.7,3,11.8,6.1,11.4,7c-0.4,0.9-6.2-0.8-12.8-3.7c-6.7-3-11.8-6.1-11.4-7
		C299.4,139.2,305.1,140.9,311.8,143.9"/>
	<path d="M316.1,137.3c3.5,1.8,5.6,4.4,5,5.2c-0.6,0.8-3.5-0.3-6.7-1.9c-3.2-1.7-5.8-3.3-5.5-4.3
		C309.3,135.3,312.6,135.5,316.1,137.3"/>
	<path d="M319.2,193.6c0.3,0.4-2.2,3-7,6.4c-4.8,3.4-11.8,7.6-20.2,10.9c-8.4,3.3-16.4,5-22.2,5.7c-5.9,0.7-9.5,0.5-9.5,0
		c-0.1-1.1,14.2-2.7,30.4-9.1C306.9,201.2,318.5,192.7,319.2,193.6"/>
	<path d="M298.3,147.2c8.8,4,15.1,8.8,14.6,9.6c-0.5,0.9-7.5-2.4-16.1-6.3c-8.6-3.9-15.7-6.9-15.4-7.9
		C281.7,141.7,289.5,143.2,298.3,147.2"/>
	<path d="M304.2,104.7c4.8,2.5,7.9,5.8,7.3,6.5c-0.6,0.8-4.4-1-8.9-3.3c-4.5-2.3-8.2-4.3-7.9-5.3
		C294.9,101.7,299.3,102.2,304.2,104.7"/>
	<path d="M294.1,108.7c3.6,1.9,5.8,4.6,5.2,5.4c-0.6,0.8-3.5-0.4-6.9-2.2c-3.3-1.8-6-3.6-5.7-4.6C287,106.4,290.5,106.7,294.1,108.7
		"/>
	<path d="M288.1,113c3.3,2,5.5,4.2,5,5.1c-0.5,0.9-3.6,0-6.9-2c-3.3-2-5.5-4.2-5-5.1C281.8,110.2,284.9,111,288.1,113"/>
	<path d="M260.3,179.5c3.7,1.5,6.3,3.5,5.9,4.4c-0.4,0.9-3.7,0.4-7.3-1.1c-3.7-1.5-6.3-3.5-5.9-4.4
		C253.4,177.5,256.7,178,260.3,179.5"/>
	<path d="M256.6,216c0.3,0.9-7.8,4.6-18.4,6.9c-10.6,2.3-19.5,2.4-19.6,1.4c-0.1-1,8.4-2.7,18.8-5C247.8,217.1,256.3,215,256.6,216"
		/>
	<path d="M242.8,179c7.9,4.3,13.6,8.9,13,9.8c-0.6,0.9-7-2.3-14.8-6.6c-7.7-4.3-13.9-8.1-13.4-9C228.1,172.3,235,174.7,242.8,179"/>
	<path d="M248.7,130.1c2.1,0.8,2.9,2.7,2.2,3.4c-0.7,0.7-2.1,0.5-3.5,0c-1.3-0.5-2.5-1.3-2.6-2.3
		C244.7,130.2,246.6,129.3,248.7,130.1"/>
	<path d="M242.3,83.5c4.2,2.9,6.1,6.7,5.3,7.3c-0.8,0.6-3.7-1.8-7.4-4.3c-3.7-2.6-6.9-4.4-6.6-5.4C233.9,80.1,238.2,80.6,242.3,83.5
		"/>
	<path d="M233.3,86c8.5,5.6,14.5,11.3,13.9,12.1c-0.6,0.8-7.5-3.6-15.9-9c-8.3-5.5-15.1-10-14.6-10.9
		C217.2,77.3,224.8,80.5,233.3,86"/>
	<path d="M240.3,120.1c3.8,1.6,5.9,4.4,5.2,5.1c-0.6,0.8-3.4-0.4-6.7-1.8c-3.2-1.4-6-2.7-5.8-3.7
		C233.1,118.7,236.5,118.4,240.3,120.1"/>
	<path d="M236.7,124.3c2.7,1.1,4.5,2.7,4.1,3.7c-0.4,0.9-2.8,0.8-5.5-0.3c-2.7-1.1-4.5-2.7-4.2-3.6
		C231.6,123.1,234,123.2,236.7,124.3"/>
	<path d="M234.4,182.8c3.5,2,5.9,4.3,5.3,5.2c-0.5,0.9-3.7,0-7.2-2c-3.5-2-5.9-4.3-5.4-5.2C227.7,180,230.9,180.9,234.4,182.8"/>
	<path d="M221.9,87.8c5.5,2.7,9.7,5.6,9.2,6.5c-0.4,0.9-5.3-0.5-10.8-3.2c-5.5-2.7-9.7-5.6-9.3-6.5
		C211.6,83.7,216.4,85.1,221.9,87.8"/>
	<path d="M230.8,283.5c0.5,0.9-2.1,3.2-6.1,3.9c-4,0.8-7.2-0.4-7.1-1.4c0.1-1,3-1.6,6.5-2.2C227.4,283.2,230.3,282.6,230.8,283.5"/>
	<path class="st6" d="M218.5,139.5c-0.3,0.4-0.6,0.7-0.9,1.1c-26,9.3-52.2,18.6-79.6,22.8c-7.7,1.2-15.4,1.9-23.1,2.1
		c-3.5,0.1-8.5-1.1-11.8,0.5c-6.5,3.1-5.1,12.3-4.9,18.9c-1.3,0-2.6,0.1-3.8,0.1c0-0.1,0-0.3,0-0.4c-0.2-3.3-0.3-6.7-0.5-10
		c-0.1-3-0.9-6.8,0.8-9.5c0,0,0,0,0,0c0.7-0.6,1.2-1.4,1.3-2.2C137.1,157,178,149.2,218.5,139.5"/>
	<path d="M212.9,224.6c0.2,0.9-9.8,3.9-22.5,2.7c-12.7-1.1-22-5.9-21.6-6.7c0.4-1,9.9,2,21.9,3.1
		C202.8,224.8,212.7,223.6,212.9,224.6"/>
	<path d="M210,286c0.1,1-8.6,2.7-19.3,1.3c-10.7-1.3-18.7-5.2-18.3-6.1c0.3-1,8.5,1.2,18.8,2.5C201.5,285,209.9,284.9,210,286"/>
	<path d="M200.3,109.9c3.4,1.6,5.3,4.2,4.7,5c-0.6,0.8-3.3-0.3-6.2-1.7c-3-1.4-5.4-2.8-5.3-3.7C193.7,108.4,196.9,108.2,200.3,109.9
		"/>
	<path d="M192.1,114.4c5.4,3.3,8.9,7.2,8.3,7.9c-0.6,0.8-5-1.6-10.2-4.8c-5.1-3.2-9.2-6.1-8.8-7
		C181.8,109.6,186.7,111.1,192.1,114.4"/>
	<path d="M182.6,116c4.8,3.1,8.2,6.2,7.6,7.1c-0.5,0.8-4.8-1-9.6-4c-4.8-3.1-8.2-6.2-7.6-7.1C173.6,111.2,177.9,113,182.6,116"/>
	<path class="st7" d="M152.6,164.5c20.3-4.4,40.1-11,59.6-18c-10.3,11.7-20.6,23.5-31.3,34.8c-0.5-0.4-1.1-0.6-1.9-0.6
		c-25.4,0.9-51.3,3-77.1,3.9c-0.1-4.8-0.7-10.5,2.7-13.5c3.8-3.2,11.2-1.8,16.2-2.1C131.4,168.4,142.1,166.8,152.6,164.5"/>
	<path class="st5" d="M94.6,213.5c0.7-0.7-0.9-3.7-4.2-6.1c-3.2-2.5-6.5-3.3-7-2.5c-0.5,0.9,1.8,3,4.8,5.3
		C91.2,212.5,93.9,214.2,94.6,213.5z M102.8,210.7c0.7-0.6-1.2-4-5.1-6.4c-4-2.4-7.8-2.4-8-1.5c-0.2,1,2.7,2.5,6.2,4.6
		C99.3,209.5,102,211.4,102.8,210.7z M113.6,211.3c0.6-0.8-1-2.9-3.5-4.5c-2.5-1.7-4.9-2.4-5.5-1.5c-0.6,0.8,1,2.9,3.5,4.5
		C110.6,211.4,113.1,212.1,113.6,211.3z M138.6,198.9c0.6-0.8-0.9-3-3.4-4.9c-2.5-1.9-5-2.8-5.6-2s0.9,3,3.4,4.9
		C135.5,198.8,138,199.7,138.6,198.9z M150,188.4c8.4-0.4,16.7-0.7,25.1-1c-4,4.1-8.1,8.1-12.3,12c-0.3,0.1-0.7,0.2-1,0.3
		c-2.7,1.4-5.6,3.1-7.9,5.2c-0.4-0.5-0.9-1-1.4-1.5c-2.9-2.7-6.1-3.8-6.6-3c-0.5,0.9,1.5,3.1,4.1,5.6c0.4,0.4,0.8,0.8,1.3,1.1
		c-1.1,0.3-2.2,0.6-3.3,0.9c-0.6-0.4-1.2-0.8-1.8-1.2c-4.5-2.8-8.7-4-9.1-3.2c-0.4,0.8,2.5,3.2,6.4,5.7c-19.2,5.8-38,12.6-56.5,20.5
		c-1-0.2-2.1-0.1-2.9,0.6c-5.5-10.5-14.5-19.7-23.2-27.5c-7.5-6.8-15.8-11.8-25.5-13c0.6-0.2,1.2-0.4,1.8-0.6c3-0.8,8,0.8,11.1,1
		c8.2,0.6,16.3,0.7,24.5,0.5c24.2-0.3,48.5-1.4,72.7-2.4c0.5,0.9,1.3,1.9,2.3,2.8c2.6,2.2,5.4,2.8,5.9,1.9c0.5-0.9-1.3-2.8-3.5-4.7
		C150.1,188.6,150,188.5,150,188.4"/>
	<path class="st6" d="M155.9,254.5c0,1.8,0,3.6,0,5.4c-12,8.4-23.9,17-35.4,26.1c-12.3,9.7-23.3,21.7-35.9,30.9
		c-2.3,1.6-4.4,2.7-6.4,3.3c-1.2-28.5,2.3-56.6,10.4-84c0.3-0.1,0.6-0.1,0.9-0.2c19.6-8.3,39.7-15.4,60.1-21.4
		c0,0.8,0.1,1.6,0.3,2.3c-10.9,3.2-21.6,6.7-32.2,10.7c-7.9,3-21.4,6.1-26.9,13c-6,7.5-6.7,21.1-8,30.1c-1.9,13.2-2.3,26.4-1.7,39.6
		c0.1,1.7,2,2.5,3.3,1.4C107.5,291.7,131.3,272.6,155.9,254.5"/>
	<path class="st7" d="M154.6,230.7c0.8,6.2,1.1,12.6,1.3,19c-24.4,17.9-48.1,36.8-71,56.5c-0.4-9.6-0.2-19.3,0.9-28.9
		c1.2-10.6,1.9-25.8,9.2-34c7.2-8.1,21-11.2,31.2-14.8c8.2-2.9,16.5-5.6,24.9-8C152.3,223.9,154.1,227.3,154.6,230.7"/>
	<path d="M135.2,194c2.5,1.9,4,4.1,3.4,4.9c-0.6,0.8-3.1-0.1-5.6-2c-2.5-1.9-4-4.1-3.4-4.9S132.8,192.1,135.2,194"/>
	<path d="M123.8,123.6c8.3,3.7,14.5,7.7,14.1,8.6c-0.4,0.9-7.3-1.6-15.6-5.3c-8.2-3.7-14.7-7.2-14.3-8.1
		C108.4,117.8,115.5,119.9,123.8,123.6"/>
	<path d="M131.8,106.5c3.4,1,5.6,3.1,5.1,4c-0.5,0.9-3.1,0.3-6.1-0.5c-2.9-0.9-5.4-1.8-5.4-2.8C125.5,106.2,128.4,105.5,131.8,106.5
		"/>
	<path d="M127.8,116.7c3.9,1.8,6.7,4,6.2,5c-0.4,0.9-3.9,0.2-7.8-1.7c-3.9-1.8-6.7-4-6.3-4.9C120.4,114.1,123.9,114.8,127.8,116.7"
		/>
	<path d="M117.7,137.1c3.3,1.4,5.6,3.2,5.2,4.2c-0.4,0.9-3.4,0.6-6.6-0.8c-3.3-1.4-5.6-3.2-5.2-4.2
		C111.5,135.4,114.5,135.7,117.7,137.1"/>
	<path d="M110.2,206.8c2.5,1.7,4,3.7,3.5,4.5c-0.6,0.8-3,0.1-5.5-1.5c-2.5-1.7-4-3.7-3.5-4.5C105.2,204.4,107.7,205.1,110.2,206.8"
		/>
	<path d="M97.7,204.3c4,2.3,5.9,5.7,5.1,6.4c-0.8,0.7-3.6-1.2-7-3.2c-3.4-2-6.4-3.6-6.2-4.6C89.8,201.9,93.7,202,97.7,204.3"/>
	<path d="M90.5,207.4c3.2,2.5,4.9,5.5,4.2,6.1c-0.8,0.7-3.4-1-6.4-3.3c-3-2.3-5.2-4.5-4.8-5.3C83.9,204,87.2,204.9,90.5,207.4"/>
	<path class="st4" d="M87.8,185c-2.9,0-5.7,0.1-8.6,0.1c-0.4-9.7-0.5-19.4-0.3-29.1c2.5,3.1,5.6,5.7,9.1,7.9
		c-0.9,2.4-0.9,4.9-0.8,7.6c0.2,4.4,0.4,8.7,0.6,13.1C87.7,184.7,87.8,184.9,87.8,185"/>
	<path class="st4" d="M61.8,213.1c7.1,7.3,14.1,14.7,18.3,24.1c-19.5-9.6-29.4-32.8-50.8-39c0.1-0.7,0.2-1.3,0.4-1.9
		C43,196,52.9,204,61.8,213.1"/>
	<path class="st4" d="M46.3,229.6c0.6-0.8-2.3-4.2-6-8.1c-3.7-3.9-7-7-7.8-6.4c-0.8,0.6,1.3,4.8,5.2,8.9
		C41.5,228.1,45.6,230.4,46.3,229.6z M63.8,244.3c0.4-0.9-3.2-3.5-7.4-6.7c-4.3-3.2-7.7-6.1-8.5-5.4c-0.8,0.6,1.6,4.8,6.2,8.3
		C58.8,244,63.4,245.2,63.8,244.3z M80.4,241.6c-6.9,25.8-9.8,52.3-8.6,79.1c-4.4-0.6-8.6-3.1-13.3-6.3c-6.1-4.2-11.7-9.2-16.8-14.6
		c-12.6-13.4-19.7-27.1-17.8-45.8c1.7-16.3,3.3-32.7,4.8-49c0.1-1,0.1-2,0.2-2.9C50,208.7,60.2,232.5,80.4,241.6"/>
	<path d="M56.4,237.6c4.2,3.3,7.8,5.8,7.4,6.7c-0.4,0.9-5-0.3-9.6-3.8c-4.6-3.5-7-7.7-6.2-8.3C48.7,231.5,52.1,234.4,56.4,237.6"/>
	<path d="M40.2,221.5c3.8,3.9,6.7,7.3,6,8.1c-0.6,0.8-4.7-1.5-8.6-5.6c-3.9-4.1-6-8.3-5.2-8.9C33.2,214.5,36.5,217.5,40.2,221.5"/>
</g>
</svg>
